<svg width="25" height="18" viewBox="0 0 25 18" fill="none" xmlns="http://www.w3.org/2000/svg">
<path fill-rule="evenodd" clip-rule="evenodd" d="M4.72254 0.522949H6.90233V2.70272H4.72254V0.522949ZM4.72254 4.64166V6.81987H2.54434V11.1794H4.72254V13.1172V15.2967H6.90233V13.1172H17.5599V15.2962H13.4426V17.4759H17.5599V15.2967H19.7398V11.1794H21.9179V6.81987H19.7398H19.7387V4.64166H17.5615V2.70351H15.3818V4.64166H9.0805V2.70351H6.90076V4.64166H4.72254ZM17.5599 8.99804V6.82145H15.3784V8.99804H17.5599ZM9.08128 6.82145V8.99804H6.90233V6.82145H9.08128ZM2.54354 8.99804H0.36377V15.2952H2.54354V8.99804ZM11.0207 17.4759V15.2962H6.9033V17.4759H11.0207ZM19.7398 0.522949H17.5599V2.70272H19.7398V0.522949ZM24.1009 8.99804H21.9211V15.2952H24.1009V8.99804Z" fill="#FFE457"/>
</svg>
